# xmcd
#
# Track frame offsets: 
#        150
#        22622
#        51509
#        72304
#        90337
#        108907
#        133783
#        147886
#        171262
#        186601
#        211660
#        236517
#        256678
#        285524
#
# Disc length: 3814 seconds
#
# Revision: 0
# Processed by: cddbd v1.5.2PL0 Copyright (c) Steve Scherf et al.
# Submitted via: ExactAudioCopy v0.99pb5
#
DISCID=c00ee40e
DTITLE=Mark Knopfler - Sailing To Philadelphia 
DYEAR=2000
DGENRE=Pop
TTITLE0=What It Is 
TTITLE1=Sailing to Philadelphia
TTITLE2=Who's Your Baby Now 
TTITLE3=Baloney Again 
TTITLE4=The Last Laugh 
TTITLE5=Silvertown Blues 
TTITLE6=El Macho 
TTITLE7=Prairie Wedding 
TTITLE8=Wanderlust 
TTITLE9=Speedway At Nazareth 
TTITLE10=Junkie Doll 
TTITLE11=Sands of Nevada 
TTITLE12=One More Matinee 
TTITLE13=Data
EXTD=
EXTT0=
EXTT1=
EXTT2=
EXTT3=
EXTT4=
EXTT5=
EXTT6=
EXTT7=
EXTT8=
EXTT9=
EXTT10=
EXTT11=
EXTT12=
EXTT13=
PLAYORDER=
